<mxfile host="app.diagrams.net" modified="2023-12-17T08:58:02.449Z" agent="Mozilla/5.0 (Windows NT 10.0; Win64; x64) AppleWebKit/537.36 (KHTML, like Gecko) Chrome/120.0.0.0 Safari/537.36 Edg/120.0.0.0" version="22.1.11" etag="RIwD0Qq5A0cepI5T_NOG" type="github">
  <diagram name="Page-1" id="MRQsqfmynDAEM94Wlj2t">
    <mxGraphModel>
      <root>
        <mxCell id="0" />
        <mxCell id="1" parent="0" />
      </root>
    </mxGraphModel>
  </diagram>
</mxfile>
